<?xml version="1.0" encoding="UTF-8"?>
<svg width="33px" height="36px" viewBox="0 0 33 36" version="1.1" xmlns="http://www.w3.org/2000/svg" xmlns:xlink="http://www.w3.org/1999/xlink">
    <!-- Generator: Sketch 52.4 (67378) - http://www.bohemiancoding.com/sketch -->
    <title>duban</title>
    <desc>Created with Sketch.</desc>
    <g id="智慧执法-V1.1.0" stroke="none" stroke-width="1" fill="none" fill-rule="evenodd">
        <g id="我的-任务列表-任务台账-已督办" transform="translate(-124.000000, -349.000000)" fill="#FF433E">
            <g id="临时任务1" transform="translate(24.000000, 346.000000)">
                <g id="duban" transform="translate(100.000000, 3.000000)">
                    <path d="M10.7301695,16.2271186 L22.2284746,16.2271186 L22.2284746,17.5722034 L10.7301695,17.5722034 L10.7301695,16.2271186 Z M10.7301695,18.700339 L22.2284746,18.700339 L22.2284746,20.0454237 L10.7301695,20.0454237 L10.7301695,18.700339 Z M10.7301695,21.2169492 L22.2284746,21.2169492 L22.2284746,22.5620339 L10.7301695,22.5620339 L10.7301695,21.2169492 Z" id="形状" fill-rule="nonzero"></path>
                    <path d="M-3.16191517e-13,2.94882174e-13 L-3.16191517e-13,36 L16.4576271,30.3389831 L33,36 L33,2.94882174e-13 L-3.16191517e-13,2.94882174e-13 Z M6.26101695,9.06779661 L10.339661,9.06779661 L10.339661,4.81559322 L11.7715254,4.81559322 L11.7715254,6.42101695 L15.9369492,6.42101695 L15.9369492,7.59254237 L11.7715254,7.59254237 L11.7715254,9.06779661 L17.0216949,9.06779661 L17.0216949,10.239322 L6.26101695,10.239322 L6.26101695,9.06779661 Z M16.3708475,12.8427119 L15.5030508,13.9274576 C14.7654237,13.3633898 13.9844068,12.799322 13.1166102,12.1918644 L13.8976271,11.2372881 C14.7654237,11.7145763 15.5898305,12.2786441 16.3708475,12.8427119 Z M12.4657627,10.6298305 L12.4657627,14.5349153 L11.0338983,14.5349153 L11.0338983,10.6298305 L12.4657627,10.6298305 Z M7.0420339,14.7952542 C6.73830508,14.4481356 6.43457627,14.1010169 6.08745763,13.7972881 C7.08542373,12.9728814 7.99661017,12.0616949 8.82101695,11.1071186 L9.90576271,11.9749153 C8.99457627,12.9728814 8.04,13.9274576 7.0420339,14.7952542 Z M23.7037288,24.8616949 L22.2284746,24.8616949 L22.2284746,23.7769492 L10.7301695,23.7769492 L10.7301695,24.8616949 L9.25491525,24.8616949 L9.25491525,15.0122034 L23.7037288,15.0122034 L23.7037288,24.8616949 Z M25.7430508,15.1857627 C23.7471186,14.5349153 22.1416949,13.7538983 20.8833898,12.799322 C19.7986441,13.580339 18.540339,14.2745763 17.1518644,14.8820339 C16.9349153,14.5349153 16.6745763,14.1444068 16.2840678,13.7105085 C17.6291525,13.1898305 18.800678,12.5823729 19.8854237,11.8881356 C18.7138983,10.6732203 17.8461017,9.1979661 17.2820339,7.41898305 L16.7179661,7.41898305 L16.7179661,6.2040678 L25.3091525,6.2040678 L25.3091525,7.28881356 C24.5281356,9.11118644 23.4433898,10.6732203 22.0549153,11.8881356 C23.2698305,12.7125424 24.7450847,13.3633898 26.5674576,13.7972881 C26.220339,14.2745763 25.96,14.7518644 25.7430508,15.1857627 Z" id="形状" fill-rule="nonzero"></path>
                    <path d="M18.5837288,7.41898305 C19.1477966,8.89423729 19.9722034,10.1091525 20.9267797,11.020339 C22.1416949,9.97898305 23.0528814,8.7640678 23.6169492,7.41898305 L18.5837288,7.41898305 Z" id="路径"></path>
                </g>
            </g>
        </g>
    </g>
</svg>